<mxfile host="app.diagrams.net" modified="2024-03-12T07:21:45.108Z" agent="Mozilla/5.0 (Windows NT 10.0; Win64; x64) AppleWebKit/537.36 (KHTML, like Gecko) Chrome/122.0.0.0 Safari/537.36" etag="YHTERaJyuSkQIMT6gjLI" version="24.0.4" type="device">
  <diagram name="Halaman-1" id="m5ilhTYXSZk0-sMBzSbH">
    <mxGraphModel dx="1500" dy="746" grid="1" gridSize="10" guides="1" tooltips="1" connect="1" arrows="1" fold="1" page="1" pageScale="1" pageWidth="827" pageHeight="1169" math="0" shadow="0">
      <root>
        <mxCell id="0" />
        <mxCell id="1" parent="0" />
        <mxCell id="ON9KqgQ1MPpjl14u-Ske-110" style="edgeStyle=orthogonalEdgeStyle;rounded=0;orthogonalLoop=1;jettySize=auto;html=1;endArrow=none;endFill=0;" parent="1" source="ON9KqgQ1MPpjl14u-Ske-1" target="ON9KqgQ1MPpjl14u-Ske-41" edge="1">
          <mxGeometry relative="1" as="geometry" />
        </mxCell>
        <mxCell id="ON9KqgQ1MPpjl14u-Ske-1" value="admin" style="rounded=0;whiteSpace=wrap;html=1;" parent="1" vertex="1">
          <mxGeometry x="490" y="490" width="120" height="60" as="geometry" />
        </mxCell>
        <mxCell id="ON9KqgQ1MPpjl14u-Ske-2" value="id_admin" style="ellipse;whiteSpace=wrap;html=1;fontStyle=4" parent="1" vertex="1">
          <mxGeometry x="450" y="370" width="120" height="80" as="geometry" />
        </mxCell>
        <mxCell id="ON9KqgQ1MPpjl14u-Ske-3" value="nama_admin" style="ellipse;whiteSpace=wrap;html=1;" parent="1" vertex="1">
          <mxGeometry x="300" y="340" width="120" height="80" as="geometry" />
        </mxCell>
        <mxCell id="ON9KqgQ1MPpjl14u-Ske-125" style="rounded=0;orthogonalLoop=1;jettySize=auto;html=1;exitX=0.5;exitY=0;exitDx=0;exitDy=0;entryX=0;entryY=1;entryDx=0;entryDy=0;endArrow=none;endFill=0;" parent="1" source="ON9KqgQ1MPpjl14u-Ske-4" target="ON9KqgQ1MPpjl14u-Ske-10" edge="1">
          <mxGeometry relative="1" as="geometry" />
        </mxCell>
        <mxCell id="ON9KqgQ1MPpjl14u-Ske-126" style="rounded=0;orthogonalLoop=1;jettySize=auto;html=1;exitX=1;exitY=0.25;exitDx=0;exitDy=0;entryX=0;entryY=0.5;entryDx=0;entryDy=0;endArrow=none;endFill=0;" parent="1" source="ON9KqgQ1MPpjl14u-Ske-4" target="ON9KqgQ1MPpjl14u-Ske-6" edge="1">
          <mxGeometry relative="1" as="geometry" />
        </mxCell>
        <mxCell id="ON9KqgQ1MPpjl14u-Ske-127" style="rounded=0;orthogonalLoop=1;jettySize=auto;html=1;exitX=1;exitY=0.75;exitDx=0;exitDy=0;entryX=0;entryY=0;entryDx=0;entryDy=0;endArrow=none;endFill=0;" parent="1" source="ON9KqgQ1MPpjl14u-Ske-4" target="ON9KqgQ1MPpjl14u-Ske-5" edge="1">
          <mxGeometry relative="1" as="geometry" />
        </mxCell>
        <mxCell id="ON9KqgQ1MPpjl14u-Ske-128" style="rounded=0;orthogonalLoop=1;jettySize=auto;html=1;exitX=0.75;exitY=1;exitDx=0;exitDy=0;endArrow=none;endFill=0;" parent="1" source="ON9KqgQ1MPpjl14u-Ske-4" target="ON9KqgQ1MPpjl14u-Ske-7" edge="1">
          <mxGeometry relative="1" as="geometry" />
        </mxCell>
        <mxCell id="ON9KqgQ1MPpjl14u-Ske-129" style="rounded=0;orthogonalLoop=1;jettySize=auto;html=1;entryX=0.5;entryY=1;entryDx=0;entryDy=0;endArrow=none;endFill=0;edgeStyle=orthogonalEdgeStyle;exitX=0;exitY=0.5;exitDx=0;exitDy=0;" parent="1" source="ON9KqgQ1MPpjl14u-Ske-4" target="ON9KqgQ1MPpjl14u-Ske-39" edge="1">
          <mxGeometry relative="1" as="geometry" />
        </mxCell>
        <mxCell id="ON9KqgQ1MPpjl14u-Ske-131" style="edgeStyle=orthogonalEdgeStyle;rounded=0;orthogonalLoop=1;jettySize=auto;html=1;entryX=1;entryY=0.5;entryDx=0;entryDy=0;endArrow=none;endFill=0;" parent="1" source="ON9KqgQ1MPpjl14u-Ske-4" target="ON9KqgQ1MPpjl14u-Ske-40" edge="1">
          <mxGeometry relative="1" as="geometry">
            <Array as="points">
              <mxPoint x="1070" y="760" />
              <mxPoint x="900" y="760" />
              <mxPoint x="900" y="750" />
            </Array>
          </mxGeometry>
        </mxCell>
        <mxCell id="ON9KqgQ1MPpjl14u-Ske-4" value="user" style="rounded=0;whiteSpace=wrap;html=1;" parent="1" vertex="1">
          <mxGeometry x="1210" y="685" width="120" height="60" as="geometry" />
        </mxCell>
        <mxCell id="ON9KqgQ1MPpjl14u-Ske-5" value="id_user" style="ellipse;whiteSpace=wrap;html=1;fontStyle=4" parent="1" vertex="1">
          <mxGeometry x="1400" y="732.5" width="120" height="80" as="geometry" />
        </mxCell>
        <mxCell id="ON9KqgQ1MPpjl14u-Ske-6" value="no_telp" style="ellipse;whiteSpace=wrap;html=1;" parent="1" vertex="1">
          <mxGeometry x="1380" y="640" width="120" height="80" as="geometry" />
        </mxCell>
        <mxCell id="ON9KqgQ1MPpjl14u-Ske-7" value="nama_user" style="ellipse;whiteSpace=wrap;html=1;" parent="1" vertex="1">
          <mxGeometry x="1270" y="780" width="120" height="80" as="geometry" />
        </mxCell>
        <mxCell id="ON9KqgQ1MPpjl14u-Ske-8" value="nama_layanan" style="ellipse;whiteSpace=wrap;html=1;" parent="1" vertex="1">
          <mxGeometry x="720" y="895" width="120" height="80" as="geometry" />
        </mxCell>
        <mxCell id="ON9KqgQ1MPpjl14u-Ske-9" value="id_layanan" style="ellipse;whiteSpace=wrap;html=1;fontStyle=4" parent="1" vertex="1">
          <mxGeometry x="820" y="980" width="120" height="80" as="geometry" />
        </mxCell>
        <mxCell id="ON9KqgQ1MPpjl14u-Ske-10" value="password" style="ellipse;whiteSpace=wrap;html=1;" parent="1" vertex="1">
          <mxGeometry x="1390" y="530" width="120" height="80" as="geometry" />
        </mxCell>
        <mxCell id="ON9KqgQ1MPpjl14u-Ske-13" value="username" style="ellipse;whiteSpace=wrap;html=1;" parent="1" vertex="1">
          <mxGeometry x="340" y="440" width="120" height="80" as="geometry" />
        </mxCell>
        <mxCell id="ON9KqgQ1MPpjl14u-Ske-14" value="password" style="ellipse;whiteSpace=wrap;html=1;" parent="1" vertex="1">
          <mxGeometry x="290" y="530" width="120" height="80" as="geometry" />
        </mxCell>
        <mxCell id="ON9KqgQ1MPpjl14u-Ske-113" style="rounded=0;orthogonalLoop=1;jettySize=auto;html=1;exitX=0;exitY=0.5;exitDx=0;exitDy=0;endArrow=none;endFill=0;" parent="1" source="ON9KqgQ1MPpjl14u-Ske-15" target="ON9KqgQ1MPpjl14u-Ske-17" edge="1">
          <mxGeometry relative="1" as="geometry" />
        </mxCell>
        <mxCell id="ON9KqgQ1MPpjl14u-Ske-114" style="rounded=0;orthogonalLoop=1;jettySize=auto;html=1;exitX=0.25;exitY=0;exitDx=0;exitDy=0;endArrow=none;endFill=0;" parent="1" source="ON9KqgQ1MPpjl14u-Ske-15" target="ON9KqgQ1MPpjl14u-Ske-19" edge="1">
          <mxGeometry relative="1" as="geometry" />
        </mxCell>
        <mxCell id="ON9KqgQ1MPpjl14u-Ske-115" style="rounded=0;orthogonalLoop=1;jettySize=auto;html=1;exitX=0.75;exitY=0;exitDx=0;exitDy=0;entryX=0;entryY=1;entryDx=0;entryDy=0;endArrow=none;endFill=0;" parent="1" source="ON9KqgQ1MPpjl14u-Ske-15" target="ON9KqgQ1MPpjl14u-Ske-18" edge="1">
          <mxGeometry relative="1" as="geometry" />
        </mxCell>
        <mxCell id="ON9KqgQ1MPpjl14u-Ske-116" style="rounded=0;orthogonalLoop=1;jettySize=auto;html=1;exitX=1;exitY=0.75;exitDx=0;exitDy=0;entryX=0;entryY=1;entryDx=0;entryDy=0;endArrow=none;endFill=0;" parent="1" source="ON9KqgQ1MPpjl14u-Ske-15" target="ON9KqgQ1MPpjl14u-Ske-16" edge="1">
          <mxGeometry relative="1" as="geometry" />
        </mxCell>
        <mxCell id="ON9KqgQ1MPpjl14u-Ske-117" style="rounded=0;orthogonalLoop=1;jettySize=auto;html=1;entryX=0.5;entryY=0;entryDx=0;entryDy=0;endArrow=none;endFill=0;" parent="1" source="ON9KqgQ1MPpjl14u-Ske-15" target="ON9KqgQ1MPpjl14u-Ske-38" edge="1">
          <mxGeometry relative="1" as="geometry" />
        </mxCell>
        <mxCell id="ON9KqgQ1MPpjl14u-Ske-15" value="super_admin" style="rounded=0;whiteSpace=wrap;html=1;" parent="1" vertex="1">
          <mxGeometry x="634" y="220" width="120" height="60" as="geometry" />
        </mxCell>
        <mxCell id="ON9KqgQ1MPpjl14u-Ske-16" value="id_super_admin" style="ellipse;whiteSpace=wrap;html=1;fontStyle=4" parent="1" vertex="1">
          <mxGeometry x="774" y="160" width="120" height="80" as="geometry" />
        </mxCell>
        <mxCell id="ON9KqgQ1MPpjl14u-Ske-17" value="nama_super_admin" style="ellipse;whiteSpace=wrap;html=1;" parent="1" vertex="1">
          <mxGeometry x="485" y="190" width="120" height="80" as="geometry" />
        </mxCell>
        <mxCell id="ON9KqgQ1MPpjl14u-Ske-18" value="username" style="ellipse;whiteSpace=wrap;html=1;" parent="1" vertex="1">
          <mxGeometry x="700" y="80" width="120" height="80" as="geometry" />
        </mxCell>
        <mxCell id="ON9KqgQ1MPpjl14u-Ske-19" value="password" style="ellipse;whiteSpace=wrap;html=1;" parent="1" vertex="1">
          <mxGeometry x="560" y="110" width="120" height="80" as="geometry" />
        </mxCell>
        <mxCell id="ON9KqgQ1MPpjl14u-Ske-119" style="rounded=0;orthogonalLoop=1;jettySize=auto;html=1;entryX=0.5;entryY=1;entryDx=0;entryDy=0;endArrow=none;endFill=0;" parent="1" source="ON9KqgQ1MPpjl14u-Ske-20" target="ON9KqgQ1MPpjl14u-Ske-30" edge="1">
          <mxGeometry relative="1" as="geometry" />
        </mxCell>
        <mxCell id="ON9KqgQ1MPpjl14u-Ske-120" style="rounded=0;orthogonalLoop=1;jettySize=auto;html=1;exitX=0.75;exitY=0;exitDx=0;exitDy=0;endArrow=none;endFill=0;" parent="1" source="ON9KqgQ1MPpjl14u-Ske-20" target="ON9KqgQ1MPpjl14u-Ske-23" edge="1">
          <mxGeometry relative="1" as="geometry" />
        </mxCell>
        <mxCell id="ON9KqgQ1MPpjl14u-Ske-121" style="rounded=0;orthogonalLoop=1;jettySize=auto;html=1;exitX=1;exitY=0.25;exitDx=0;exitDy=0;entryX=0;entryY=1;entryDx=0;entryDy=0;endArrow=none;endFill=0;" parent="1" source="ON9KqgQ1MPpjl14u-Ske-20" target="ON9KqgQ1MPpjl14u-Ske-24" edge="1">
          <mxGeometry relative="1" as="geometry" />
        </mxCell>
        <mxCell id="ON9KqgQ1MPpjl14u-Ske-122" style="rounded=0;orthogonalLoop=1;jettySize=auto;html=1;exitX=1;exitY=0.5;exitDx=0;exitDy=0;endArrow=none;endFill=0;" parent="1" source="ON9KqgQ1MPpjl14u-Ske-20" target="ON9KqgQ1MPpjl14u-Ske-25" edge="1">
          <mxGeometry relative="1" as="geometry" />
        </mxCell>
        <mxCell id="ON9KqgQ1MPpjl14u-Ske-123" style="rounded=0;orthogonalLoop=1;jettySize=auto;html=1;exitX=1;exitY=0.75;exitDx=0;exitDy=0;entryX=0;entryY=0.5;entryDx=0;entryDy=0;endArrow=none;endFill=0;" parent="1" source="ON9KqgQ1MPpjl14u-Ske-20" target="ON9KqgQ1MPpjl14u-Ske-29" edge="1">
          <mxGeometry relative="1" as="geometry" />
        </mxCell>
        <mxCell id="ON9KqgQ1MPpjl14u-Ske-124" style="rounded=0;orthogonalLoop=1;jettySize=auto;html=1;exitX=1;exitY=1;exitDx=0;exitDy=0;entryX=0;entryY=0;entryDx=0;entryDy=0;endArrow=none;endFill=0;" parent="1" source="ON9KqgQ1MPpjl14u-Ske-20" target="ON9KqgQ1MPpjl14u-Ske-28" edge="1">
          <mxGeometry relative="1" as="geometry" />
        </mxCell>
        <mxCell id="ON9KqgQ1MPpjl14u-Ske-20" value="pembayaran" style="rounded=0;whiteSpace=wrap;html=1;" parent="1" vertex="1">
          <mxGeometry x="992" y="360" width="120" height="60" as="geometry" />
        </mxCell>
        <mxCell id="ON9KqgQ1MPpjl14u-Ske-49" style="rounded=0;orthogonalLoop=1;jettySize=auto;html=1;exitX=0.25;exitY=0;exitDx=0;exitDy=0;entryX=1;entryY=0.5;entryDx=0;entryDy=0;endArrow=none;endFill=0;" parent="1" source="ON9KqgQ1MPpjl14u-Ske-21" target="ON9KqgQ1MPpjl14u-Ske-31" edge="1">
          <mxGeometry relative="1" as="geometry" />
        </mxCell>
        <mxCell id="ON9KqgQ1MPpjl14u-Ske-101" style="edgeStyle=orthogonalEdgeStyle;rounded=1;orthogonalLoop=1;jettySize=auto;html=1;exitX=0;exitY=0.5;exitDx=0;exitDy=0;entryX=1;entryY=0.5;entryDx=0;entryDy=0;endArrow=none;endFill=0;curved=0;" parent="1" source="ON9KqgQ1MPpjl14u-Ske-21" target="ON9KqgQ1MPpjl14u-Ske-32" edge="1">
          <mxGeometry relative="1" as="geometry" />
        </mxCell>
        <mxCell id="ON9KqgQ1MPpjl14u-Ske-102" style="rounded=0;orthogonalLoop=1;jettySize=auto;html=1;exitX=1;exitY=1;exitDx=0;exitDy=0;entryX=0.5;entryY=0;entryDx=0;entryDy=0;endArrow=none;endFill=0;" parent="1" source="ON9KqgQ1MPpjl14u-Ske-4" target="ON9KqgQ1MPpjl14u-Ske-34" edge="1">
          <mxGeometry relative="1" as="geometry" />
        </mxCell>
        <mxCell id="ON9KqgQ1MPpjl14u-Ske-103" style="rounded=0;orthogonalLoop=1;jettySize=auto;html=1;exitX=0.5;exitY=1;exitDx=0;exitDy=0;entryX=0.5;entryY=0;entryDx=0;entryDy=0;endArrow=none;endFill=0;" parent="1" source="ON9KqgQ1MPpjl14u-Ske-21" target="ON9KqgQ1MPpjl14u-Ske-35" edge="1">
          <mxGeometry relative="1" as="geometry" />
        </mxCell>
        <mxCell id="ON9KqgQ1MPpjl14u-Ske-104" style="rounded=0;orthogonalLoop=1;jettySize=auto;html=1;exitX=0.75;exitY=1;exitDx=0;exitDy=0;entryX=0.5;entryY=0;entryDx=0;entryDy=0;endArrow=none;endFill=0;" parent="1" source="ON9KqgQ1MPpjl14u-Ske-21" target="ON9KqgQ1MPpjl14u-Ske-33" edge="1">
          <mxGeometry relative="1" as="geometry" />
        </mxCell>
        <mxCell id="ON9KqgQ1MPpjl14u-Ske-105" style="rounded=0;orthogonalLoop=1;jettySize=auto;html=1;exitX=1;exitY=1;exitDx=0;exitDy=0;endArrow=none;endFill=0;entryX=0;entryY=0.5;entryDx=0;entryDy=0;" parent="1" source="ON9KqgQ1MPpjl14u-Ske-21" target="ON9KqgQ1MPpjl14u-Ske-36" edge="1">
          <mxGeometry relative="1" as="geometry">
            <mxPoint x="484.99663868655546" y="1041.7561891432588" as="targetPoint" />
          </mxGeometry>
        </mxCell>
        <mxCell id="ON9KqgQ1MPpjl14u-Ske-21" value="instalasi" style="rounded=0;whiteSpace=wrap;html=1;" parent="1" vertex="1">
          <mxGeometry x="302.58000000000004" y="845" width="120" height="60" as="geometry" />
        </mxCell>
        <mxCell id="ON9KqgQ1MPpjl14u-Ske-106" style="rounded=0;orthogonalLoop=1;jettySize=auto;html=1;entryX=1;entryY=0;entryDx=0;entryDy=0;endArrow=none;endFill=0;" parent="1" source="ON9KqgQ1MPpjl14u-Ske-22" target="ON9KqgQ1MPpjl14u-Ske-8" edge="1">
          <mxGeometry relative="1" as="geometry" />
        </mxCell>
        <mxCell id="ON9KqgQ1MPpjl14u-Ske-107" style="rounded=0;orthogonalLoop=1;jettySize=auto;html=1;exitX=0.25;exitY=1;exitDx=0;exitDy=0;entryX=0.5;entryY=0;entryDx=0;entryDy=0;endArrow=none;endFill=0;" parent="1" source="ON9KqgQ1MPpjl14u-Ske-22" target="ON9KqgQ1MPpjl14u-Ske-9" edge="1">
          <mxGeometry relative="1" as="geometry" />
        </mxCell>
        <mxCell id="ON9KqgQ1MPpjl14u-Ske-108" style="rounded=0;orthogonalLoop=1;jettySize=auto;html=1;exitX=0.75;exitY=1;exitDx=0;exitDy=0;entryX=0.5;entryY=0;entryDx=0;entryDy=0;endArrow=none;endFill=0;" parent="1" source="ON9KqgQ1MPpjl14u-Ske-22" target="ON9KqgQ1MPpjl14u-Ske-27" edge="1">
          <mxGeometry relative="1" as="geometry" />
        </mxCell>
        <mxCell id="ON9KqgQ1MPpjl14u-Ske-109" style="rounded=0;orthogonalLoop=1;jettySize=auto;html=1;exitX=1;exitY=0.5;exitDx=0;exitDy=0;entryX=0;entryY=0.5;entryDx=0;entryDy=0;endArrow=none;endFill=0;" parent="1" source="ON9KqgQ1MPpjl14u-Ske-22" target="ON9KqgQ1MPpjl14u-Ske-26" edge="1">
          <mxGeometry relative="1" as="geometry" />
        </mxCell>
        <mxCell id="ON9KqgQ1MPpjl14u-Ske-22" value="layanan" style="rounded=0;whiteSpace=wrap;html=1;" parent="1" vertex="1">
          <mxGeometry x="867" y="880" width="120" height="60" as="geometry" />
        </mxCell>
        <mxCell id="ON9KqgQ1MPpjl14u-Ske-23" value="tanggal_pembayaran" style="ellipse;whiteSpace=wrap;html=1;" parent="1" vertex="1">
          <mxGeometry x="1132" y="170" width="120" height="80" as="geometry" />
        </mxCell>
        <mxCell id="ON9KqgQ1MPpjl14u-Ske-24" value="jumlah_pembayaran" style="ellipse;whiteSpace=wrap;html=1;" parent="1" vertex="1">
          <mxGeometry x="1232" y="230" width="120" height="80" as="geometry" />
        </mxCell>
        <mxCell id="ON9KqgQ1MPpjl14u-Ske-25" value="metode_pembayaran" style="ellipse;whiteSpace=wrap;html=1;" parent="1" vertex="1">
          <mxGeometry x="1343" y="300" width="120" height="80" as="geometry" />
        </mxCell>
        <mxCell id="ON9KqgQ1MPpjl14u-Ske-26" value="harga_layanan" style="ellipse;whiteSpace=wrap;html=1;" parent="1" vertex="1">
          <mxGeometry x="1010" y="870" width="120" height="80" as="geometry" />
        </mxCell>
        <mxCell id="ON9KqgQ1MPpjl14u-Ske-27" value="deskripsi_layanan" style="ellipse;whiteSpace=wrap;html=1;" parent="1" vertex="1">
          <mxGeometry x="960" y="960" width="120" height="80" as="geometry" />
        </mxCell>
        <mxCell id="ON9KqgQ1MPpjl14u-Ske-28" value="id_pembayaran" style="ellipse;whiteSpace=wrap;html=1;fontStyle=4" parent="1" vertex="1">
          <mxGeometry x="1152" y="450" width="120" height="80" as="geometry" />
        </mxCell>
        <mxCell id="ON9KqgQ1MPpjl14u-Ske-29" value="status_pembayaran" style="ellipse;whiteSpace=wrap;html=1;" parent="1" vertex="1">
          <mxGeometry x="1252" y="380" width="120" height="80" as="geometry" />
        </mxCell>
        <mxCell id="ON9KqgQ1MPpjl14u-Ske-30" value="user_id" style="ellipse;whiteSpace=wrap;html=1;" parent="1" vertex="1">
          <mxGeometry x="1002" y="200" width="120" height="80" as="geometry" />
        </mxCell>
        <mxCell id="ON9KqgQ1MPpjl14u-Ske-31" value="id_instalasi" style="ellipse;whiteSpace=wrap;html=1;fontStyle=4" parent="1" vertex="1">
          <mxGeometry x="62.58000000000001" y="760" width="120" height="80" as="geometry" />
        </mxCell>
        <mxCell id="ON9KqgQ1MPpjl14u-Ske-32" value="tanggal_instalasi" style="ellipse;whiteSpace=wrap;html=1;" parent="1" vertex="1">
          <mxGeometry x="142.58" y="835" width="120" height="80" as="geometry" />
        </mxCell>
        <mxCell id="ON9KqgQ1MPpjl14u-Ske-33" value="status_instalasi" style="ellipse;whiteSpace=wrap;html=1;fontStyle=0" parent="1" vertex="1">
          <mxGeometry x="312.58000000000004" y="970" width="120" height="80" as="geometry" />
        </mxCell>
        <mxCell id="ON9KqgQ1MPpjl14u-Ske-34" value="alamat_user" style="ellipse;whiteSpace=wrap;html=1;" parent="1" vertex="1">
          <mxGeometry x="1400" y="850" width="120" height="80" as="geometry" />
        </mxCell>
        <mxCell id="ON9KqgQ1MPpjl14u-Ske-35" value="id_user" style="ellipse;whiteSpace=wrap;html=1;" parent="1" vertex="1">
          <mxGeometry x="170" y="960" width="120" height="80" as="geometry" />
        </mxCell>
        <mxCell id="ON9KqgQ1MPpjl14u-Ske-36" value="id_layanan" style="ellipse;whiteSpace=wrap;html=1;" parent="1" vertex="1">
          <mxGeometry x="460" y="920" width="120" height="80" as="geometry" />
        </mxCell>
        <mxCell id="ON9KqgQ1MPpjl14u-Ske-118" style="rounded=0;orthogonalLoop=1;jettySize=auto;html=1;entryX=1;entryY=0.5;entryDx=0;entryDy=0;endArrow=none;endFill=0;" parent="1" source="ON9KqgQ1MPpjl14u-Ske-38" target="ON9KqgQ1MPpjl14u-Ske-1" edge="1">
          <mxGeometry relative="1" as="geometry">
            <Array as="points">
              <mxPoint x="694" y="520" />
            </Array>
          </mxGeometry>
        </mxCell>
        <mxCell id="ON9KqgQ1MPpjl14u-Ske-135" style="edgeStyle=orthogonalEdgeStyle;rounded=0;orthogonalLoop=1;jettySize=auto;html=1;endArrow=none;endFill=0;" parent="1" source="ON9KqgQ1MPpjl14u-Ske-38" target="ON9KqgQ1MPpjl14u-Ske-20" edge="1">
          <mxGeometry relative="1" as="geometry" />
        </mxCell>
        <mxCell id="ON9KqgQ1MPpjl14u-Ske-38" value="mengelola" style="rhombus;whiteSpace=wrap;html=1;" parent="1" vertex="1">
          <mxGeometry x="629" y="350" width="130" height="80" as="geometry" />
        </mxCell>
        <mxCell id="ON9KqgQ1MPpjl14u-Ske-130" style="rounded=0;orthogonalLoop=1;jettySize=auto;html=1;endArrow=none;endFill=0;edgeStyle=orthogonalEdgeStyle;" parent="1" source="ON9KqgQ1MPpjl14u-Ske-39" target="ON9KqgQ1MPpjl14u-Ske-20" edge="1">
          <mxGeometry relative="1" as="geometry" />
        </mxCell>
        <mxCell id="ON9KqgQ1MPpjl14u-Ske-39" value="melakukan" style="rhombus;whiteSpace=wrap;html=1;" parent="1" vertex="1">
          <mxGeometry x="987" y="505" width="130" height="80" as="geometry" />
        </mxCell>
        <mxCell id="ON9KqgQ1MPpjl14u-Ske-132" style="edgeStyle=orthogonalEdgeStyle;rounded=0;orthogonalLoop=1;jettySize=auto;html=1;entryX=1;entryY=0.5;entryDx=0;entryDy=0;endArrow=none;endFill=0;" parent="1" source="ON9KqgQ1MPpjl14u-Ske-40" target="ON9KqgQ1MPpjl14u-Ske-21" edge="1">
          <mxGeometry relative="1" as="geometry" />
        </mxCell>
        <mxCell id="ON9KqgQ1MPpjl14u-Ske-40" value="memesan" style="rhombus;whiteSpace=wrap;html=1;" parent="1" vertex="1">
          <mxGeometry x="695" y="720" width="130" height="80" as="geometry" />
        </mxCell>
        <mxCell id="ON9KqgQ1MPpjl14u-Ske-111" style="edgeStyle=orthogonalEdgeStyle;rounded=0;orthogonalLoop=1;jettySize=auto;html=1;entryX=0.75;entryY=0;entryDx=0;entryDy=0;endArrow=none;endFill=0;" parent="1" source="ON9KqgQ1MPpjl14u-Ske-41" target="ON9KqgQ1MPpjl14u-Ske-21" edge="1">
          <mxGeometry relative="1" as="geometry" />
        </mxCell>
        <mxCell id="ON9KqgQ1MPpjl14u-Ske-112" style="edgeStyle=orthogonalEdgeStyle;rounded=0;orthogonalLoop=1;jettySize=auto;html=1;entryX=0.5;entryY=0;entryDx=0;entryDy=0;endArrow=none;endFill=0;" parent="1" source="ON9KqgQ1MPpjl14u-Ske-41" target="ON9KqgQ1MPpjl14u-Ske-22" edge="1">
          <mxGeometry relative="1" as="geometry" />
        </mxCell>
        <mxCell id="ON9KqgQ1MPpjl14u-Ske-41" value="mengelola" style="rhombus;whiteSpace=wrap;html=1;" parent="1" vertex="1">
          <mxGeometry x="485" y="610" width="130" height="80" as="geometry" />
        </mxCell>
        <mxCell id="ON9KqgQ1MPpjl14u-Ske-44" value="" style="endArrow=none;html=1;rounded=0;entryX=0.5;entryY=1;entryDx=0;entryDy=0;exitX=0.5;exitY=0;exitDx=0;exitDy=0;" parent="1" source="ON9KqgQ1MPpjl14u-Ske-1" target="ON9KqgQ1MPpjl14u-Ske-2" edge="1">
          <mxGeometry width="50" height="50" relative="1" as="geometry">
            <mxPoint x="670" y="540" as="sourcePoint" />
            <mxPoint x="720" y="490" as="targetPoint" />
          </mxGeometry>
        </mxCell>
        <mxCell id="ON9KqgQ1MPpjl14u-Ske-45" value="" style="endArrow=none;html=1;rounded=0;entryX=1;entryY=1;entryDx=0;entryDy=0;exitX=0.25;exitY=0;exitDx=0;exitDy=0;" parent="1" source="ON9KqgQ1MPpjl14u-Ske-1" target="ON9KqgQ1MPpjl14u-Ske-3" edge="1">
          <mxGeometry width="50" height="50" relative="1" as="geometry">
            <mxPoint x="560" y="500" as="sourcePoint" />
            <mxPoint x="520" y="460" as="targetPoint" />
          </mxGeometry>
        </mxCell>
        <mxCell id="ON9KqgQ1MPpjl14u-Ske-47" value="" style="endArrow=none;html=1;rounded=0;entryX=1;entryY=1;entryDx=0;entryDy=0;exitX=0;exitY=0.25;exitDx=0;exitDy=0;" parent="1" source="ON9KqgQ1MPpjl14u-Ske-1" target="ON9KqgQ1MPpjl14u-Ske-13" edge="1">
          <mxGeometry width="50" height="50" relative="1" as="geometry">
            <mxPoint x="530" y="500" as="sourcePoint" />
            <mxPoint x="412" y="418" as="targetPoint" />
          </mxGeometry>
        </mxCell>
        <mxCell id="ON9KqgQ1MPpjl14u-Ske-48" value="" style="endArrow=none;html=1;rounded=0;entryX=1;entryY=0.5;entryDx=0;entryDy=0;exitX=0;exitY=0.75;exitDx=0;exitDy=0;" parent="1" source="ON9KqgQ1MPpjl14u-Ske-1" target="ON9KqgQ1MPpjl14u-Ske-14" edge="1">
          <mxGeometry width="50" height="50" relative="1" as="geometry">
            <mxPoint x="500" y="515" as="sourcePoint" />
            <mxPoint x="452" y="518" as="targetPoint" />
          </mxGeometry>
        </mxCell>
        <mxCell id="ON9KqgQ1MPpjl14u-Ske-133" value="id_admin" style="ellipse;whiteSpace=wrap;html=1;" parent="1" vertex="1">
          <mxGeometry x="182.58" y="710" width="120" height="80" as="geometry" />
        </mxCell>
        <mxCell id="ON9KqgQ1MPpjl14u-Ske-134" value="" style="endArrow=none;html=1;rounded=0;entryX=1;entryY=1;entryDx=0;entryDy=0;exitX=0.5;exitY=0;exitDx=0;exitDy=0;" parent="1" source="ON9KqgQ1MPpjl14u-Ske-21" target="ON9KqgQ1MPpjl14u-Ske-133" edge="1">
          <mxGeometry width="50" height="50" relative="1" as="geometry">
            <mxPoint x="402.58000000000004" y="570" as="sourcePoint" />
            <mxPoint x="362.58000000000004" y="530" as="targetPoint" />
          </mxGeometry>
        </mxCell>
        <mxCell id="l2NxlkA1h7TVw3JAVmp2-1" value="username" style="ellipse;whiteSpace=wrap;html=1;" vertex="1" parent="1">
          <mxGeometry x="1270" y="530" width="120" height="80" as="geometry" />
        </mxCell>
        <mxCell id="l2NxlkA1h7TVw3JAVmp2-2" style="rounded=0;orthogonalLoop=1;jettySize=auto;html=1;exitX=0.25;exitY=0;exitDx=0;exitDy=0;entryX=0;entryY=1;entryDx=0;entryDy=0;endArrow=none;endFill=0;" edge="1" target="l2NxlkA1h7TVw3JAVmp2-1" parent="1" source="ON9KqgQ1MPpjl14u-Ske-4">
          <mxGeometry relative="1" as="geometry">
            <mxPoint x="1150" y="685" as="sourcePoint" />
          </mxGeometry>
        </mxCell>
      </root>
    </mxGraphModel>
  </diagram>
</mxfile>
